# xmcd
#
# Track frame offsets: 
#        150
#        19923
#        46989
#        75522
#        93527
#        102145
#        116967
#        133152
#        147868
#        174281
#        193372
#        217446
#        238310
#        277402
#        296961
#        312275
#
# Disc length: 4631 seconds
#
# Revision: 3
# Processed by: cddbd v1.5.2PL0 Copyright (c) Steve Scherf et al.
# Submitted via: ExactAudioCopy v0.95b4
#
DISCID=08121510
DTITLE=Paul Van Dyk - Volume: The Best Of Paul Van Dyk [CD1)
DYEAR=2009
DGENRE=Trance
TTITLE0=For An Angel (PVD Remix 09)
TTITLE1=Home (feat. Johnny McDaid) (PVD Club Mix)
TTITLE2=Let Go (feat. Rea Garvey) (Vandit Club Mix By PVD)
TTITLE3=White Lies (feat. Jessica Sutta) (Album Mix)
TTITLE4=Nothing But You (feat. Hemstock And Jennings) (Original)
TTITLE5=Another Way (PVD Club Mix)
TTITLE6=Forbidden Fruit (Original)
TTITLE7=Together We Will Conquer (Short Version)
TTITLE8=New York City (with Starkillers And Austin Leeds feat. Ashley 
TTITLE8=Tomberlin)
TTITLE9=A Magical Moment (Original)
TTITLE10=Words (For Love)
TTITLE11=Tell Me Why (The Riddle) (feat. Saint Etienne) (PVD Club Mix)
TTITLE12=The Other Side (feat. Wayne Jackson) (Original)
TTITLE13=We Are Alive (feat. Jennifer Brown) (Original)
TTITLE14=Time Of Our Lives (feat. Vega 4) (US Radio Edit)
TTITLE15=For An Angel (E-Werk Club Mix)
EXTD=
EXTT0=
EXTT1=
EXTT2=
EXTT3=
EXTT4=
EXTT5=
EXTT6=
EXTT7=
EXTT8=
EXTT9=
EXTT10=
EXTT11=
EXTT12=
EXTT13=
EXTT14=
EXTT15=
PLAYORDER=
